<svg height="512" viewBox="0 0 512 512" width="512" xmlns="http://www.w3.org/2000/svg"><g id="flat"><path d="m424.006 156a8 8 0 0 1 -3.584-15.157l24-12a8 8 0 1 1 7.156 14.31l-24 12a7.976 7.976 0 0 1 -3.572.847z" fill="#667447"/><path d="m412.021 237.994a8 8 0 0 1 -3.583-15.157l27.984-13.992a8 8 0 1 1 7.156 14.31l-27.985 13.992a7.959 7.959 0 0 1 -3.572.847z" fill="#667447"/><path d="m328 228.835a66 66 0 0 0 35.08-52.948l2.981-35.766a52 52 0 0 1 20.62-37.282 19.2 19.2 0 0 1 25.091 1.784l3.788 3.787a52 52 0 0 1 15.15 39.654l-2.847 51.255a120 120 0 0 1 -66.15 100.675l-33.713 16.856z" fill="#768753"/><path d="m88 223.857a7.954 7.954 0 0 1 -4.937-1.71l-24-18.857a8 8 0 1 1 9.884-12.58l24 18.857a8 8 0 0 1 -4.947 14.29z" fill="#667447"/><path d="m109.993 300.626a7.97 7.97 0 0 1 -4.525-1.408l-30-20.625a8 8 0 0 1 9.064-13.186l30 20.625a8 8 0 0 1 -4.539 14.594z" fill="#667447"/><path d="m200 275-14.824-7.412a66 66 0 0 1 -36.256-53.551l-2.981-35.766a52 52 0 0 0 -20.62-37.282 19.2 19.2 0 0 0 -25.091 1.783l-3.788 3.788a52 52 0 0 0 -15.15 39.654l2.847 51.255a120 120 0 0 0 66.15 100.674l49.713 24.857z" fill="#768753"/><path d="m408 102.831 11.65-8.321a8 8 0 0 0 -9.3-13.02l-9.121 6.515-9.287-7.3a8 8 0 1 0 -9.884 12.582l9.942 7.813v65.815c0 1.89-.058 3.775-.155 5.654l-3.053-2.284a8 8 0 0 0 -9.584 12.813l10.192 7.623a113 113 0 0 1 -20.79 44.61l-.964-3.131a8 8 0 0 0 -15.292 4.709l3.744 12.155a110.591 110.591 0 0 1 -9.006 7.533l-37.841 28.408a8 8 0 0 0 9.606 12.8l37.831-28.4a126.461 126.461 0 0 0 12.242-10.456l14.05-.2a8 8 0 0 0 .066-15.99 129.1 129.1 0 0 0 22.609-51.667l11.163-8.381a8 8 0 0 0 -8.855-13.292c.016-.832.037-1.664.037-2.5z" fill="#667447"/><path d="m220.805 335.923-15.991-11.317-27.214-21.773q-4.536-3.629-8.735-7.59l3.638-11.812a8 8 0 0 0 -15.291-4.709l-.936 3.039a144.665 144.665 0 0 1 -27.36-52.427l8.487-11.252a8 8 0 0 0 -12.74-9.675c-.385-3.028-.686-6.073-.877-9.136l-3.7-59.212 10.568-7.549a8 8 0 0 0 -9.3-13.02l-9.121 6.515-9.287-7.3a8 8 0 1 0 -9.884 12.582l10.984 8.631 3.772 60.348c.292 4.666.8 9.3 1.493 13.885l-2.476-.937a8 8 0 0 0 -5.662 14.965l12.091 4.573a160.732 160.732 0 0 0 28.54 56.519 8 8 0 0 0 .074 15.99l14.547.206q5.341 5.163 11.181 9.856l27.4 21.92q.184.147.376.283l16.184 11.453a8 8 0 0 0 9.243-13.06z" fill="#667447"/><g fill="#768753"><path d="m211.363 426.5a7.965 7.965 0 0 1 -4.938-1.71l-27.367-21.5a8 8 0 1 1 9.885-12.58l27.368 21.5a8 8 0 0 1 -4.948 14.29z"/><path d="m203.842 219.023a7.956 7.956 0 0 1 -4.937-1.71l-17.848-14.023a8 8 0 1 1 9.886-12.58l17.848 14.023a8 8 0 0 1 -4.949 14.29z"/><path d="m212.167 111.85a7.965 7.965 0 0 1 -4.938-1.71l-20.172-15.85a8 8 0 1 1 9.885-12.58l20.173 15.85a8 8 0 0 1 -4.948 14.29z"/><path d="m209.747 476.233a7.959 7.959 0 0 1 -4.937-1.709l-25.752-20.233a8 8 0 0 1 9.884-12.582l25.752 20.233a8 8 0 0 1 -4.947 14.291z"/><path d="m321.828 388.426a8 8 0 0 1 -4.949-14.29l22.178-17.426a8 8 0 1 1 9.886 12.58l-22.178 17.426a7.964 7.964 0 0 1 -4.937 1.71z"/><path d="m321.828 439.426a8 8 0 0 1 -4.949-14.29l22.178-17.426a8 8 0 1 1 9.886 12.58l-22.178 17.426a7.964 7.964 0 0 1 -4.937 1.71z"/><path d="m322.061 142.242a8 8 0 0 1 -4.948-14.291l21.945-17.242a8 8 0 0 1 9.884 12.582l-21.942 17.242a7.969 7.969 0 0 1 -4.939 1.709z"/></g><path d="m328 488h-128v-344.679a107 107 0 0 1 31.34-75.661 46.189 46.189 0 0 1 65.32 0 107 107 0 0 1 31.34 75.661z" fill="#91a666"/><path d="m285.027 79.673-14.081-24.642c-.025-.044-.05-.079-.074-.119a7.994 7.994 0 0 0 -13.818.119l-14.081 24.642a144.241 144.241 0 0 0 -18.973 71.444v336.883a8 8 0 0 0 16 0v-336.883a128.212 128.212 0 0 1 16-61.934v398.817a8 8 0 0 0 16 0v-398.817a128.212 128.212 0 0 1 16 61.934v336.883a8 8 0 0 0 16 0v-336.883a144.241 144.241 0 0 0 -18.973-71.444z" fill="#768753"/><path d="m284.51 36.35a8 8 0 0 0 -11.16-1.86l-9.121 6.515-9.287-7.3a8 8 0 0 0 -9.884 12.582l14 11a7.972 7.972 0 0 0 9.5.27c.03-.019.061-.03.091-.051l14-10a8 8 0 0 0 1.861-11.156z" fill="#768753"/><path d="m273.35 298.49-9.121 6.515-9.287-7.3a8 8 0 0 0 -9.884 12.582l14 11a7.973 7.973 0 0 0 9.586.21l.006.009 14-10a8 8 0 0 0 -9.3-13.02z" fill="#768753"/><path d="m273.35 370.49-9.121 6.515-9.287-7.3a8 8 0 0 0 -9.884 12.582l14 11a7.973 7.973 0 0 0 9.586.21l.006.009 14-10a8 8 0 0 0 -9.3-13.02z" fill="#768753"/><path d="m273.35 442.49-9.121 6.515-9.287-7.3a8 8 0 0 0 -9.884 12.582l14 11a7.973 7.973 0 0 0 9.586.21l.006.009 14-10a8 8 0 0 0 -9.3-13.02z" fill="#768753"/><path d="m273.35 226.49-9.121 6.515-9.287-7.3a8 8 0 0 0 -9.884 12.582l14 11a7.973 7.973 0 0 0 9.586.21l.006.009 14-10a8 8 0 1 0 -9.3-13.02z" fill="#768753"/><path d="m245.058 166.291 14 11a7.973 7.973 0 0 0 9.586.21l.006.009 14-10a8 8 0 1 0 -9.3-13.02l-9.121 6.515-9.287-7.3a8 8 0 1 0 -9.884 12.582z" fill="#768753"/><path d="m496 496h-464a8 8 0 0 1 0-16h464a8 8 0 0 1 0 16z" fill="#d78e0c"/></g></svg>